# File created by Blade
# Date/Time:  Tue Apr 07 21:33:03 2015
# Frame Rate: 120.000 fps
#------------------------------------------------------
:FULLY-SPECIFIED
:DEGREES
1105
root -1.480223 32.893106 -3.782140 15.083487 2.765611 -1.963442
Spine -14.211173 -5.933012 1.498736
Head 8.800093 -3.993927 -2.416985
LeftShoulder -23.018597 37.816582 19.902790
LeftArm 54.593500 -61.037032 -52.727969
LeftForeArm 10.204225 -0.000000 -2.761020
LeftHand 3.522614 -0.000000 4.510214
LeftHandThumb1 -26.253704 0.000000 33.147579
RightShoulder -7.971656 4.194216 -31.269765
RightArm 11.602630 15.658048 41.016371
RightForeArm -13.789327 -0.000000 0.013562
RightHand 1.134688 -0.000000 1.243804
RightHandThumb1 -24.326973 -0.000000 -32.862282
LeftUpLeg -3.859669 -16.263618 3.676768
LeftLeg -9.233886 -0.000000 0.000000
LeftFoot -8.217581 21.200948 -20.166890
LeftToeBase -4.314982 -0.000000 0.000000
RightUpLeg -8.760844 -1.039182 3.577528
RightLeg 1.175804 -0.000000 -0.000000
RightFoot -9.563151 -10.143873 6.051954
RightToeBase -2.100098 -0.000000 0.000000
1106
root -1.486704 32.886112 -3.793712 15.038101 2.694202 -1.992285
Spine -14.267272 -5.919705 1.501360
Head 8.998786 -3.963953 -2.312141
LeftShoulder -23.011202 37.893866 19.886926
LeftArm 54.682541 -60.997210 -52.790931
LeftForeArm 10.222343 -0.000000 -2.682631
LeftHand 3.600372 0.000000 4.554445
LeftHandThumb1 -26.253704 0.000000 33.147579
RightShoulder -7.968208 4.164862 -31.239484
RightArm 11.702650 15.566140 41.067458
RightForeArm -13.851138 -0.000000 -0.033866
RightHand 1.138881 -0.000000 1.433828
RightHandThumb1 -24.326973 -0.000000 -32.862282
LeftUpLeg -3.745933 -16.146374 3.684439
LeftLeg -9.380500 -0.000000 0.000000
LeftFoot -8.202153 21.147649 -20.184423
LeftToeBase -4.218228 -0.000000 0.000000
RightUpLeg -8.663000 -1.062857 3.607751
RightLeg 1.030363 -0.000000 -0.000000
RightFoot -9.535645 -10.060179 6.033416
RightToeBase -2.105233 -0.000000 0.000000
1107
root -1.494470 32.880099 -3.804850 15.041534 2.627155 -2.040962
Spine -14.394024 -5.901024 1.529581
Head 9.204761 -3.868465 -2.200718
LeftShoulder -22.980652 38.002166 19.897230
LeftArm 54.800157 -60.954355 -52.905242
LeftForeArm 10.148818 -0.000000 -2.617185
LeftHand 3.775848 -0.000000 4.638701
LeftHandThumb1 -26.253704 0.000000 33.147579
RightShoulder -7.933558 4.056296 -31.154492
RightArm 11.822027 15.494185 41.022682
RightForeArm -13.907218 -0.000000 -0.092344
RightHand 1.201742 0.000000 1.484235
RightHandThumb1 -24.326973 -0.000000 -32.862282
LeftUpLeg -3.683980 -16.067882 3.735341
LeftLeg -9.534659 -0.000000 0.000000
LeftFoot -8.201651 21.131436 -20.258814
LeftToeBase -4.185658 -0.000000 0.000000
RightUpLeg -8.568135 -0.958266 3.633951
RightLeg 0.790404 -0.000000 -0.000000
RightFoot -9.466336 -10.049757 6.130528
RightToeBase -2.059563 -0.000000 0.000000
1108
root -1.502377 32.875344 -3.818224 15.097924 2.516521 -2.087284
Spine -14.561214 -5.848204 1.544988
Head 9.369441 -3.801748 -2.046772
LeftShoulder -22.985720 38.056603 19.892024
LeftArm 54.811580 -60.855157 -52.850340
LeftForeArm 10.077626 -0.000000 -2.583135
LeftHand 3.858553 -0.000000 4.678986
LeftHandThumb1 -26.253704 0.000000 33.147579
RightShoulder -7.943940 3.989485 -31.094967
RightArm 11.933783 15.358627 41.001861
RightForeArm -13.978000 -0.000000 -0.102796
RightHand 1.171385 -0.000000 1.465599
RightHandThumb1 -24.326973 -0.000000 -32.862282
LeftUpLeg -3.686615 -15.979182 3.796407
LeftLeg -9.665549 -0.000000 0.000000
LeftFoot -8.196909 21.131629 -20.291391
LeftToeBase -4.179639 -0.000000 0.000000
RightUpLeg -8.584051 -0.928739 3.673838
RightLeg 0.654752 -0.000000 -0.000000
RightFoot -9.407009 -9.962118 6.160859
RightToeBase -2.082683 -0.000000 0.000000
1109
root -1.510039 32.871289 -3.832056 15.167988 2.407059 -2.128700
Spine -14.745330 -5.801620 1.567960
Head 9.538850 -3.785263 -1.955448
LeftShoulder -22.993160 38.109615 19.855398
LeftArm 54.798101 -60.786328 -52.745184
LeftForeArm 10.090585 0.000000 -2.523146
LeftHand 3.836100 -0.000000 4.661016
LeftHandThumb1 -26.253704 0.000000 33.147579
RightShoulder -7.942385 3.884383 -31.054876
RightArm 12.061388 15.362280 40.999306
RightForeArm -13.913562 -0.000000 -0.083890
RightHand 1.136443 -0.000000 1.554523
RightHandThumb1 -24.326973 -0.000000 -32.862282
LeftUpLeg -3.716495 -15.930314 3.858608
LeftLeg -9.773587 -0.000000 0.000000
LeftFoot -8.214879 21.183069 -20.338214
LeftToeBase -4.130573 -0.000000 0.000000
RightUpLeg -8.633046 -0.912438 3.711329
RightLeg 0.551509 -0.000000 -0.000000
RightFoot -9.355662 -9.877605 6.175524
RightToeBase -2.112506 -0.000000 0.000000
1110
root -1.517868 32.869317 -3.845653 15.257113 2.288151 -2.174556
Spine -14.947533 -5.750086 1.597107
Head 9.694311 -3.653659 -1.841348
LeftShoulder -22.976197 38.166102 19.824896
LeftArm 54.709501 -60.734803 -52.591704
LeftForeArm 10.054291 -0.000000 -2.435845
LeftHand 3.809963 0.000000 4.623096
LeftHandThumb1 -26.253704 0.000000 33.147579
RightShoulder -7.947338 3.819454 -31.012460
RightArm 12.139695 15.321950 40.960314
RightForeArm -13.882856 -0.000000 -0.034572
RightHand 1.148410 -0.000000 1.452172
RightHandThumb1 -24.326973 -0.000000 -32.862282
LeftUpLeg -3.787544 -15.877229 3.932781
LeftLeg -9.836329 -0.000000 0.000000
LeftFoot -8.247152 21.216778 -20.398094
LeftToeBase -4.072092 -0.000000 0.000000
RightUpLeg -8.705499 -0.864737 3.747990
RightLeg 0.456076 -0.000000 -0.000000
RightFoot -9.298376 -9.815444 6.221773
RightToeBase -2.049091 -0.000000 0.000000
1111
root -1.526222 32.868548 -3.856650 15.316230 2.164531 -2.220351
Spine -15.103170 -5.717400 1.616418
Head 9.806231 -3.572640 -1.693660
LeftShoulder -23.020114 38.223417 19.781363
LeftArm 54.703988 -60.684949 -52.522377
LeftForeArm 10.088040 -0.000000 -2.372902
LeftHand 3.835974 -0.000000 4.573555
LeftHandThumb1 -26.253704 0.000000 33.147579
RightShoulder -7.961218 3.788599 -30.959077
RightArm 12.227900 15.285493 40.919468
RightForeArm -13.923055 -0.000000 0.022000
RightHand 1.114974 -0.000000 1.526474
RightHandThumb1 -24.326973 -0.000000 -32.862282
LeftUpLeg -3.830651 -15.818752 3.992315
LeftLeg -9.883265 -0.000000 0.000000
LeftFoot -8.256961 21.269468 -20.430377
LeftToeBase -4.144044 -0.000000 0.000000
RightUpLeg -8.738687 -0.805419 3.783669
RightLeg 0.349377 -0.000000 -0.000000
RightFoot -9.232840 -9.761426 6.292599
RightToeBase -2.042330 -0.000000 0.000000
